<svg id="Lag_1" data-name="Lag 1" xmlns="http://www.w3.org/2000/svg" xmlns:xlink="http://www.w3.org/1999/xlink" width="1920" height="1080" viewBox="0 0 1920 1080"><defs><style>.cls-1{fill:#eabda4;}.cls-2{fill:#d3a08c;opacity:0.61;}</style></defs><title>Hånd</title><path class="cls-1" d="M1132.23,403.06v96.07l76.45-46.79c2.42-2,7.16-5.43,10.14-8.08l10.29-14.1c2.3-4.61,3-6.31,3-9.8V406.47c0-3.8-.6-5-4.06-10.37-.61-.94-1.81-1.34-2.46-2.25l-3.71-2.7a53.51,53.51,0,0,0-11.07-5.4l-12.27-2.22c-7.49,0-11.31,0-22.32,2.74Z"/><g id="dWXor6.tif"><image id="Lag_1-2" data-name="Lag 1" width="731" height="1467" transform="translate(775.51 110.74) scale(0.49 0.49)" xlink:href="Hånd1.png"/></g><path class="cls-1" d="M439.4,1077.19H393l81.91-74.67,71.81-62.82,51.48-45.38a17.83,17.83,0,0,0,2.62-2.87L613.48,874c.34-.46.7-.92,1.08-1.35l27.74-31.2c.27-.31.53-.62.78-.94L654.27,826a17.76,17.76,0,0,0,3.7-10.84V772.56c0-.47,0-.93,0-1.39l3.54-45.08,4.09-59.36a36.64,36.64,0,0,1,2.54-11.12l8.17-20.39a17.87,17.87,0,0,1,3.92-5.94l21.66-21.66,18.32-17.44c.35-.34.69-.69,1-1.06l45.27-50.9a18.69,18.69,0,0,1,2-1.91l23.29-19.17a17.67,17.67,0,0,1,7.89-3.72l8.71-1.69a17.66,17.66,0,0,1,10.33,1.09l7.94,3.38a17.87,17.87,0,0,1,3.41,1.92L850,532.48a17.68,17.68,0,0,1,1.71,1.4l23.07,21.42a18,18,0,0,0,2.7,2.06l30.67,19.07a17.76,17.76,0,0,1,2.06,1.5l9.77,8.22a17.73,17.73,0,0,1,6.31,13.56h0c0,7.45-4.77,13.21-12,18.79l-11.64,5.72c-12.82,1.38-14.38.29-19-.56l-40.07-13.1a16.14,16.14,0,0,1-1.51-.57s-21.18-8.27-25.16-6.94a23.39,23.39,0,0,0-11.08,8.43L785,647.93a17.69,17.69,0,0,0-2.12,11.68l5.79,35.49a17.36,17.36,0,0,1,.15,4.55l-6,62.39c0,.57-.08,1.13-.08,1.7v31.78a17.73,17.73,0,0,0,1.16,6.32l3.53,9.26c1.6,4.2,5.75,5.67,8.77,9.61l14,6.85a17.74,17.74,0,0,0,7.53,1.8l57.45.84,150.78-.7c15.83-.07,51.61-.53,44.93,1.69l-54.78,51a18.46,18.46,0,0,1-2,1.69l-73.87,55a17.63,17.63,0,0,1-5,2.59l-22.11,7.37a18,18,0,0,1-4.34.87L868,952.64a17.71,17.71,0,0,0-12,5.93l-23,26-55.65,67.31-17.14,19.34a17.73,17.73,0,0,1-13.27,6Z"/><path class="cls-2" d="M779,796.74l-23.24,52.19a3.1,3.1,0,0,0-.06,2c.37,1.2,170.79-10.91,212.63-15.28a21.45,21.45,0,0,1,13.4,3l15.94,8.21a18.62,18.62,0,0,1,5.66,4.51L1017.39,868,1055,833H813l-21.52-12.35a7.07,7.07,0,0,1-2.93-3.21C785.94,811.71,779.11,796.33,779,796.74Z"/><path class="cls-1" d="M1198.64,529.45c-7.91-32.6-36-27.47-64.62-12.58-28.47,14.8-44.28,25.76-45.43,49.85-1,21.18,37,28,67.34,17.73S1204,551.71,1198.64,529.45Z"/><path class="cls-1" d="M1194.1,616.8c-6.84-28.19-33.26-22-58-9.09-24.61,12.8-38.75,25.73-36.93,47.56,1.53,18.27,32,24.23,58.23,15.33S1198.77,636,1194.1,616.8Z"/><path class="cls-1" d="M1206.12,684.65c-9.13-23.9-35.82-18-56.07-4s-28.46,27.37-27,45.7c1.28,16.12,29.8,15.69,52.64,6.93C1210.09,720.08,1212.34,701,1206.12,684.65Z"/></svg>