<svg id="Layer_1" data-name="Layer 1" xmlns="http://www.w3.org/2000/svg" xmlns:xlink="http://www.w3.org/1999/xlink" width="468" height="593" viewBox="0 0 468 593"><defs><style>.cls-1{fill:#ccc;}.cls-2{fill:#fff;}.cls-3{fill:#23262f;}.cls-4{fill:#363636;}.cls-5{opacity:0.15;}.cls-10,.cls-100,.cls-101,.cls-102,.cls-103,.cls-104,.cls-105,.cls-106,.cls-107,.cls-108,.cls-109,.cls-11,.cls-110,.cls-111,.cls-112,.cls-113,.cls-114,.cls-115,.cls-116,.cls-117,.cls-118,.cls-119,.cls-12,.cls-120,.cls-121,.cls-122,.cls-123,.cls-124,.cls-125,.cls-126,.cls-127,.cls-128,.cls-129,.cls-13,.cls-130,.cls-131,.cls-132,.cls-133,.cls-134,.cls-135,.cls-136,.cls-137,.cls-138,.cls-139,.cls-14,.cls-140,.cls-141,.cls-142,.cls-143,.cls-144,.cls-145,.cls-146,.cls-147,.cls-148,.cls-149,.cls-15,.cls-150,.cls-151,.cls-152,.cls-153,.cls-154,.cls-155,.cls-156,.cls-157,.cls-158,.cls-159,.cls-16,.cls-160,.cls-161,.cls-162,.cls-163,.cls-164,.cls-165,.cls-166,.cls-167,.cls-168,.cls-169,.cls-17,.cls-170,.cls-171,.cls-172,.cls-173,.cls-174,.cls-175,.cls-176,.cls-177,.cls-178,.cls-179,.cls-18,.cls-180,.cls-181,.cls-182,.cls-183,.cls-184,.cls-185,.cls-186,.cls-187,.cls-188,.cls-189,.cls-19,.cls-190,.cls-191,.cls-192,.cls-193,.cls-194,.cls-195,.cls-196,.cls-197,.cls-198,.cls-199,.cls-20,.cls-200,.cls-201,.cls-202,.cls-203,.cls-204,.cls-205,.cls-206,.cls-207,.cls-208,.cls-209,.cls-21,.cls-210,.cls-211,.cls-212,.cls-213,.cls-214,.cls-215,.cls-216,.cls-217,.cls-218,.cls-219,.cls-22,.cls-220,.cls-221,.cls-222,.cls-223,.cls-224,.cls-225,.cls-226,.cls-227,.cls-228,.cls-229,.cls-23,.cls-230,.cls-231,.cls-232,.cls-233,.cls-234,.cls-235,.cls-236,.cls-237,.cls-238,.cls-239,.cls-24,.cls-240,.cls-241,.cls-242,.cls-243,.cls-244,.cls-245,.cls-246,.cls-247,.cls-248,.cls-249,.cls-25,.cls-250,.cls-251,.cls-252,.cls-253,.cls-254,.cls-255,.cls-256,.cls-257,.cls-258,.cls-259,.cls-26,.cls-260,.cls-261,.cls-262,.cls-263,.cls-264,.cls-265,.cls-266,.cls-267,.cls-268,.cls-269,.cls-27,.cls-270,.cls-271,.cls-272,.cls-273,.cls-274,.cls-275,.cls-276,.cls-277,.cls-278,.cls-279,.cls-28,.cls-280,.cls-281,.cls-282,.cls-283,.cls-284,.cls-285,.cls-286,.cls-287,.cls-288,.cls-289,.cls-29,.cls-290,.cls-291,.cls-292,.cls-293,.cls-294,.cls-295,.cls-296,.cls-297,.cls-298,.cls-299,.cls-30,.cls-300,.cls-301,.cls-302,.cls-303,.cls-304,.cls-305,.cls-306,.cls-307,.cls-308,.cls-309,.cls-31,.cls-310,.cls-311,.cls-312,.cls-313,.cls-314,.cls-315,.cls-316,.cls-317,.cls-318,.cls-319,.cls-32,.cls-320,.cls-321,.cls-322,.cls-323,.cls-324,.cls-325,.cls-326,.cls-327,.cls-328,.cls-329,.cls-33,.cls-330,.cls-331,.cls-332,.cls-333,.cls-334,.cls-335,.cls-336,.cls-337,.cls-338,.cls-339,.cls-34,.cls-340,.cls-341,.cls-342,.cls-343,.cls-344,.cls-345,.cls-346,.cls-347,.cls-348,.cls-349,.cls-35,.cls-350,.cls-351,.cls-352,.cls-353,.cls-354,.cls-355,.cls-356,.cls-357,.cls-358,.cls-359,.cls-36,.cls-360,.cls-361,.cls-362,.cls-363,.cls-364,.cls-365,.cls-366,.cls-367,.cls-368,.cls-369,.cls-37,.cls-370,.cls-38,.cls-39,.cls-40,.cls-41,.cls-42,.cls-43,.cls-44,.cls-45,.cls-46,.cls-47,.cls-48,.cls-49,.cls-50,.cls-51,.cls-52,.cls-53,.cls-54,.cls-55,.cls-56,.cls-57,.cls-58,.cls-59,.cls-6,.cls-60,.cls-61,.cls-62,.cls-63,.cls-64,.cls-65,.cls-66,.cls-67,.cls-68,.cls-69,.cls-7,.cls-70,.cls-71,.cls-72,.cls-73,.cls-74,.cls-75,.cls-76,.cls-77,.cls-78,.cls-79,.cls-8,.cls-80,.cls-81,.cls-82,.cls-83,.cls-84,.cls-85,.cls-86,.cls-87,.cls-88,.cls-89,.cls-9,.cls-90,.cls-91,.cls-92,.cls-93,.cls-94,.cls-95,.cls-96,.cls-97,.cls-98,.cls-99{fill:none;stroke:#f1f1f1;stroke-width:4px;}.cls-10,.cls-100,.cls-101,.cls-102,.cls-103,.cls-104,.cls-105,.cls-106,.cls-107,.cls-108,.cls-109,.cls-11,.cls-110,.cls-111,.cls-112,.cls-113,.cls-114,.cls-115,.cls-116,.cls-117,.cls-118,.cls-119,.cls-12,.cls-120,.cls-121,.cls-122,.cls-123,.cls-124,.cls-125,.cls-126,.cls-127,.cls-128,.cls-129,.cls-130,.cls-131,.cls-132,.cls-133,.cls-134,.cls-135,.cls-136,.cls-137,.cls-138,.cls-139,.cls-14,.cls-140,.cls-141,.cls-142,.cls-143,.cls-144,.cls-145,.cls-146,.cls-147,.cls-148,.cls-149,.cls-15,.cls-150,.cls-151,.cls-152,.cls-153,.cls-154,.cls-155,.cls-156,.cls-157,.cls-158,.cls-159,.cls-16,.cls-160,.cls-161,.cls-162,.cls-163,.cls-164,.cls-165,.cls-166,.cls-167,.cls-168,.cls-169,.cls-17,.cls-170,.cls-171,.cls-172,.cls-173,.cls-174,.cls-175,.cls-176,.cls-177,.cls-178,.cls-179,.cls-180,.cls-181,.cls-182,.cls-183,.cls-184,.cls-185,.cls-186,.cls-187,.cls-188,.cls-189,.cls-19,.cls-190,.cls-191,.cls-192,.cls-193,.cls-194,.cls-195,.cls-196,.cls-197,.cls-198,.cls-199,.cls-20,.cls-200,.cls-201,.cls-202,.cls-203,.cls-204,.cls-205,.cls-206,.cls-207,.cls-208,.cls-209,.cls-21,.cls-210,.cls-211,.cls-212,.cls-213,.cls-214,.cls-215,.cls-216,.cls-217,.cls-218,.cls-219,.cls-22,.cls-220,.cls-221,.cls-222,.cls-223,.cls-224,.cls-225,.cls-226,.cls-227,.cls-228,.cls-229,.cls-23,.cls-230,.cls-231,.cls-232,.cls-233,.cls-234,.cls-235,.cls-236,.cls-237,.cls-238,.cls-239,.cls-24,.cls-240,.cls-241,.cls-242,.cls-243,.cls-244,.cls-245,.cls-246,.cls-247,.cls-248,.cls-249,.cls-25,.cls-250,.cls-251,.cls-252,.cls-253,.cls-254,.cls-255,.cls-256,.cls-257,.cls-258,.cls-259,.cls-26,.cls-260,.cls-261,.cls-262,.cls-263,.cls-264,.cls-265,.cls-266,.cls-267,.cls-268,.cls-269,.cls-27,.cls-270,.cls-271,.cls-272,.cls-273,.cls-274,.cls-275,.cls-276,.cls-277,.cls-278,.cls-279,.cls-28,.cls-280,.cls-281,.cls-282,.cls-283,.cls-284,.cls-285,.cls-286,.cls-287,.cls-288,.cls-289,.cls-29,.cls-290,.cls-291,.cls-292,.cls-293,.cls-294,.cls-295,.cls-296,.cls-297,.cls-298,.cls-299,.cls-30,.cls-300,.cls-301,.cls-302,.cls-303,.cls-304,.cls-305,.cls-306,.cls-307,.cls-308,.cls-309,.cls-31,.cls-310,.cls-311,.cls-312,.cls-313,.cls-314,.cls-315,.cls-316,.cls-317,.cls-318,.cls-319,.cls-32,.cls-320,.cls-321,.cls-322,.cls-323,.cls-324,.cls-325,.cls-326,.cls-327,.cls-328,.cls-329,.cls-33,.cls-330,.cls-331,.cls-332,.cls-333,.cls-334,.cls-335,.cls-336,.cls-337,.cls-338,.cls-339,.cls-340,.cls-341,.cls-342,.cls-343,.cls-344,.cls-345,.cls-346,.cls-347,.cls-348,.cls-349,.cls-35,.cls-350,.cls-351,.cls-352,.cls-353,.cls-354,.cls-355,.cls-356,.cls-357,.cls-358,.cls-359,.cls-36,.cls-360,.cls-361,.cls-362,.cls-363,.cls-364,.cls-365,.cls-366,.cls-367,.cls-368,.cls-369,.cls-37,.cls-370,.cls-38,.cls-39,.cls-40,.cls-41,.cls-43,.cls-44,.cls-45,.cls-46,.cls-47,.cls-49,.cls-50,.cls-51,.cls-52,.cls-53,.cls-54,.cls-55,.cls-56,.cls-57,.cls-58,.cls-59,.cls-6,.cls-60,.cls-61,.cls-63,.cls-64,.cls-65,.cls-66,.cls-67,.cls-68,.cls-69,.cls-7,.cls-70,.cls-71,.cls-72,.cls-73,.cls-74,.cls-75,.cls-76,.cls-77,.cls-78,.cls-79,.cls-8,.cls-80,.cls-81,.cls-82,.cls-83,.cls-84,.cls-85,.cls-86,.cls-87,.cls-88,.cls-89,.cls-90,.cls-91,.cls-92,.cls-93,.cls-94,.cls-95,.cls-96,.cls-97,.cls-98,.cls-99{stroke-miterlimit:10;}.cls-7{opacity:1;}.cls-8{opacity:0.99;}.cls-18,.cls-34,.cls-9{stroke-miterlimit:10;}.cls-9{opacity:0.99;}.cls-10{opacity:0.99;}.cls-11{opacity:0.99;}.cls-12{opacity:0.98;}.cls-13,.cls-42,.cls-48,.cls-62{stroke-miterlimit:10;}.cls-13{opacity:0.98;}.cls-14{opacity:0.98;}.cls-15{opacity:0.98;}.cls-16{opacity:0.97;}.cls-17{opacity:0.97;}.cls-18{opacity:0.97;}.cls-19{opacity:0.96;}.cls-20{opacity:0.96;}.cls-21{opacity:0.96;}.cls-22{opacity:0.96;}.cls-23{opacity:0.95;}.cls-24{opacity:0.95;}.cls-25{opacity:0.95;}.cls-26{opacity:0.95;}.cls-27{opacity:0.94;}.cls-28{opacity:0.94;}.cls-29{opacity:0.94;}.cls-30{opacity:0.93;}.cls-31{opacity:0.93;}.cls-32{opacity:0.93;}.cls-33{opacity:0.93;}.cls-34{opacity:0.92;}.cls-35{opacity:0.92;}.cls-36{opacity:0.92;}.cls-37{opacity:0.91;}.cls-38{opacity:0.91;}.cls-39{opacity:0.91;}.cls-40{opacity:0.91;}.cls-41{opacity:0.9;}.cls-42{opacity:0.9;}.cls-43{opacity:0.9;}.cls-44{opacity:0.9;}.cls-45{opacity:0.89;}.cls-46{opacity:0.89;}.cls-47{opacity:0.89;}.cls-48{opacity:0.88;}.cls-49{opacity:0.88;}.cls-50{opacity:0.88;}.cls-51{opacity:0.88;}.cls-52{opacity:0.87;}.cls-53{opacity:0.87;}.cls-54{opacity:0.87;}.cls-55{opacity:0.87;}.cls-56{opacity:0.86;}.cls-57{opacity:0.86;}.cls-58{opacity:0.86;}.cls-59{opacity:0.85;}.cls-60{opacity:0.85;}.cls-61{opacity:0.85;}.cls-62{opacity:0.85;}.cls-63{opacity:0.84;}.cls-64{opacity:0.84;}.cls-65{opacity:0.84;}.cls-66{opacity:0.84;}.cls-67{opacity:0.83;}.cls-68{opacity:0.83;}.cls-69{opacity:0.83;}.cls-70{opacity:0.82;}.cls-71{opacity:0.82;}.cls-72{opacity:0.82;}.cls-73{opacity:0.82;}.cls-74{opacity:0.81;}.cls-75{opacity:0.81;}.cls-76{opacity:0.81;}.cls-77{opacity:0.8;}.cls-78{opacity:0.8;}.cls-79{opacity:0.8;}.cls-80{opacity:0.8;}.cls-81{opacity:0.79;}.cls-82{opacity:0.79;}.cls-83{opacity:0.79;}.cls-84{opacity:0.79;}.cls-85{opacity:0.78;}.cls-86{opacity:0.78;}.cls-87{opacity:0.78;}.cls-88{opacity:0.77;}.cls-89{opacity:0.77;}.cls-90{opacity:0.77;}.cls-91{opacity:0.77;}.cls-92{opacity:0.76;}.cls-93{opacity:0.76;}.cls-94{opacity:0.76;}.cls-95{opacity:0.76;}.cls-96{opacity:0.75;}.cls-97{opacity:0.75;}.cls-98{opacity:0.75;}.cls-99{opacity:0.74;}.cls-100{opacity:0.74;}.cls-101{opacity:0.74;}.cls-102{opacity:0.74;}.cls-103{opacity:0.73;}.cls-104{opacity:0.73;}.cls-105{opacity:0.73;}.cls-106{opacity:0.73;}.cls-107{opacity:0.72;}.cls-108{opacity:0.72;}.cls-109{opacity:0.72;}.cls-110{opacity:0.71;}.cls-111{opacity:0.71;}.cls-112{opacity:0.71;}.cls-113{opacity:0.71;}.cls-114{opacity:0.7;}.cls-115{opacity:0.7;}.cls-116{opacity:0.7;}.cls-117{opacity:0.7;}.cls-118{opacity:0.69;}.cls-119{opacity:0.69;}.cls-120{opacity:0.69;}.cls-121{opacity:0.68;}.cls-122{opacity:0.68;}.cls-123{opacity:0.68;}.cls-124{opacity:0.68;}.cls-125{opacity:0.67;}.cls-126{opacity:0.67;}.cls-127{opacity:0.67;}.cls-128{opacity:0.66;}.cls-129{opacity:0.66;}.cls-130{opacity:0.66;}.cls-131{opacity:0.66;}.cls-132{opacity:0.65;}.cls-133{opacity:0.65;}.cls-134{opacity:0.65;}.cls-135{opacity:0.65;}.cls-136{opacity:0.64;}.cls-137{opacity:0.64;}.cls-138{opacity:0.64;}.cls-139{opacity:0.63;}.cls-140{opacity:0.63;}.cls-141{opacity:0.63;}.cls-142{opacity:0.63;}.cls-143{opacity:0.62;}.cls-144{opacity:0.62;}.cls-145{opacity:0.62;}.cls-146{opacity:0.62;}.cls-147{opacity:0.61;}.cls-148{opacity:0.61;}.cls-149{opacity:0.61;}.cls-150{opacity:0.6;}.cls-151{opacity:0.6;}.cls-152{opacity:0.6;}.cls-153{opacity:0.6;}.cls-154{opacity:0.59;}.cls-155{opacity:0.59;}.cls-156{opacity:0.59;}.cls-157{opacity:0.59;}.cls-158{opacity:0.58;}.cls-159{opacity:0.58;}.cls-160{opacity:0.58;}.cls-161{opacity:0.57;}.cls-162{opacity:0.57;}.cls-163{opacity:0.57;}.cls-164{opacity:0.57;}.cls-165{opacity:0.56;}.cls-166{opacity:0.56;}.cls-167{opacity:0.56;}.cls-168{opacity:0.55;}.cls-169{opacity:0.55;}.cls-170{opacity:0.55;}.cls-171{opacity:0.55;}.cls-172{opacity:0.54;}.cls-173{opacity:0.54;}.cls-174{opacity:0.54;}.cls-175{opacity:0.54;}.cls-176{opacity:0.53;}.cls-177{opacity:0.53;}.cls-178{opacity:0.53;}.cls-179{opacity:0.52;}.cls-180{opacity:0.52;}.cls-181{opacity:0.52;}.cls-182{opacity:0.52;}.cls-183{opacity:0.51;}.cls-184{opacity:0.51;}.cls-185{opacity:0.51;}.cls-186{opacity:0.51;}.cls-187{opacity:0.5;}.cls-188{opacity:0.5;}.cls-189{opacity:0.5;}.cls-190{opacity:0.49;}.cls-191{opacity:0.49;}.cls-192{opacity:0.49;}.cls-193{opacity:0.49;}.cls-194{opacity:0.48;}.cls-195{opacity:0.48;}.cls-196{opacity:0.48;}.cls-197{opacity:0.48;}.cls-198{opacity:0.47;}.cls-199{opacity:0.47;}.cls-200{opacity:0.47;}.cls-201{opacity:0.46;}.cls-202{opacity:0.46;}.cls-203{opacity:0.46;}.cls-204{opacity:0.46;}.cls-205{opacity:0.45;}.cls-206{opacity:0.45;}.cls-207{opacity:0.45;}.cls-208{opacity:0.45;}.cls-209{opacity:0.44;}.cls-210{opacity:0.44;}.cls-211{opacity:0.44;}.cls-212{opacity:0.43;}.cls-213{opacity:0.43;}.cls-214{opacity:0.43;}.cls-215{opacity:0.43;}.cls-216{opacity:0.42;}.cls-217{opacity:0.42;}.cls-218{opacity:0.42;}.cls-219{opacity:0.41;}.cls-220{opacity:0.41;}.cls-221{opacity:0.41;}.cls-222{opacity:0.41;}.cls-223{opacity:0.4;}.cls-224{opacity:0.4;}.cls-225{opacity:0.4;}.cls-226{opacity:0.4;}.cls-227{opacity:0.39;}.cls-228{opacity:0.39;}.cls-229{opacity:0.39;}.cls-230{opacity:0.38;}.cls-231{opacity:0.38;}.cls-232{opacity:0.38;}.cls-233{opacity:0.38;}.cls-234{opacity:0.37;}.cls-235{opacity:0.37;}.cls-236{opacity:0.37;}.cls-237{opacity:0.37;}.cls-238{opacity:0.36;}.cls-239{opacity:0.36;}.cls-240{opacity:0.36;}.cls-241{opacity:0.35;}.cls-242{opacity:0.35;}.cls-243{opacity:0.35;}.cls-244{opacity:0.35;}.cls-245{opacity:0.34;}.cls-246{opacity:0.34;}.cls-247{opacity:0.34;}.cls-248{opacity:0.34;}.cls-249{opacity:0.33;}.cls-250{opacity:0.33;}.cls-251{opacity:0.33;}.cls-252{opacity:0.32;}.cls-253{opacity:0.32;}.cls-254{opacity:0.32;}.cls-255{opacity:0.32;}.cls-256{opacity:0.31;}.cls-257{opacity:0.31;}.cls-258{opacity:0.31;}.cls-259{opacity:0.3;}.cls-260{opacity:0.3;}.cls-261{opacity:0.3;}.cls-262{opacity:0.3;}.cls-263{opacity:0.29;}.cls-264{opacity:0.29;}.cls-265{opacity:0.29;}.cls-266{opacity:0.29;}.cls-267{opacity:0.28;}.cls-268{opacity:0.28;}.cls-269{opacity:0.28;}.cls-270{opacity:0.27;}.cls-271{opacity:0.27;}.cls-272{opacity:0.27;}.cls-273{opacity:0.27;}.cls-274{opacity:0.26;}.cls-275{opacity:0.26;}.cls-276{opacity:0.26;}.cls-277{opacity:0.26;}.cls-278{opacity:0.25;}.cls-279{opacity:0.25;}.cls-280{opacity:0.25;}.cls-281{opacity:0.24;}.cls-282{opacity:0.24;}.cls-283{opacity:0.24;}.cls-284{opacity:0.24;}.cls-285{opacity:0.23;}.cls-286{opacity:0.23;}.cls-287{opacity:0.23;}.cls-288{opacity:0.23;}.cls-289{opacity:0.22;}.cls-290{opacity:0.22;}.cls-291{opacity:0.22;}.cls-292{opacity:0.21;}.cls-293{opacity:0.21;}.cls-294{opacity:0.21;}.cls-295{opacity:0.21;}.cls-296{opacity:0.2;}.cls-297{opacity:0.2;}.cls-298{opacity:0.2;}.cls-299{opacity:0.2;}.cls-300{opacity:0.19;}.cls-301{opacity:0.19;}.cls-302{opacity:0.19;}.cls-303{opacity:0.18;}.cls-304{opacity:0.18;}.cls-305{opacity:0.18;}.cls-306{opacity:0.18;}.cls-307{opacity:0.17;}.cls-308{opacity:0.17;}.cls-309{opacity:0.17;}.cls-310{opacity:0.16;}.cls-311{opacity:0.16;}.cls-312{opacity:0.16;}.cls-313{opacity:0.16;}.cls-314{opacity:0.15;}.cls-315{opacity:0.15;}.cls-316{opacity:0.15;}.cls-317{opacity:0.15;}.cls-318{opacity:0.14;}.cls-319{opacity:0.14;}.cls-320{opacity:0.14;}.cls-321{opacity:0.13;}.cls-322{opacity:0.13;}.cls-323{opacity:0.13;}.cls-324{opacity:0.13;}.cls-325{opacity:0.12;}.cls-326{opacity:0.12;}.cls-327{opacity:0.12;}.cls-328{opacity:0.12;}.cls-329{opacity:0.11;}.cls-330{opacity:0.11;}.cls-331{opacity:0.11;}.cls-332{opacity:0.1;}.cls-333{opacity:0.1;}.cls-334{opacity:0.1;}.cls-335{opacity:0.1;}.cls-336{opacity:0.09;}.cls-337{opacity:0.09;}.cls-338{opacity:0.09;}.cls-339{opacity:0.09;}.cls-340{opacity:0.08;}.cls-341{opacity:0.08;}.cls-342{opacity:0.08;}.cls-343{opacity:0.07;}.cls-344{opacity:0.07;}.cls-345{opacity:0.07;}.cls-346{opacity:0.07;}.cls-347{opacity:0.06;}.cls-348{opacity:0.06;}.cls-349{opacity:0.06;}.cls-350{opacity:0.05;}.cls-351{opacity:0.05;}.cls-352{opacity:0.05;}.cls-353{opacity:0.05;}.cls-354{opacity:0.04;}.cls-355{opacity:0.04;}.cls-356{opacity:0.04;}.cls-357{opacity:0.04;}.cls-358{opacity:0.03;}.cls-359{opacity:0.03;}.cls-360{opacity:0.03;}.cls-361{opacity:0.02;}.cls-362{opacity:0.02;}.cls-363{opacity:0.02;}.cls-364{opacity:0.02;}.cls-365{opacity:0.01;}.cls-366{opacity:0.01;}.cls-367{opacity:0.01;}.cls-368{opacity:0.01;}.cls-369{opacity:0;}.cls-370{opacity:0;}</style></defs><title>iphone</title><rect class="cls-1" x="122.88" y="69.07" width="234.22" height="434.26" rx="41.29"/><rect class="cls-2" x="124.69" y="70.85" width="230.08" height="428.55" rx="41.29"/><rect class="cls-3" x="136" y="102" width="207.15" height="340.33" rx="1.91"/><circle class="cls-4" cx="217.75" cy="87.31" r="2.49"/><circle class="cls-1" cx="239.84" cy="476.39" r="13.1"/><ellipse class="cls-2" cx="239.84" cy="476.39" rx="11.16" ry="11.61"/><rect class="cls-4" x="224.42" y="84.51" width="41.81" height="5.47" rx="2.73"/><image width="118" height="289" transform="translate(135.52 107.58) scale(1.07 1.16)" xlink:href="iphone1.png"/><image width="104" height="299" transform="translate(226.06 110.26) scale(1.13)" xlink:href="iphone2.png"/><g class="cls-5"><path class="cls-6" d="M341.07,102.41q-66.57,170-133.13,340"/><path class="cls-7" d="M341.07,103.35l-132.76,339"/><path class="cls-8" d="M341.07,104.28,208.67,442.37"/><path class="cls-9" d="M341.07,105.21,209,442.37"/><path class="cls-10" d="M341.07,106.14,209.4,442.37"/><path class="cls-11" d="M341.07,107.07q-65.65,167.64-131.3,335.3"/><path class="cls-12" d="M341.07,108Q275.61,275.17,210.13,442.37"/><path class="cls-13" d="M341.07,108.93,210.5,442.37"/><path class="cls-14" d="M341.07,109.86,210.86,442.37"/><path class="cls-15" d="M341.07,110.79Q276.15,276.57,211.23,442.37"/><path class="cls-16" d="M341.07,111.72,211.59,442.37"/><path class="cls-17" d="M341.07,112.65,212,442.37"/><path class="cls-18" d="M341.07,113.58Q276.71,278,212.32,442.37"/><path class="cls-19" d="M341.07,114.52Q276.89,278.43,212.68,442.37"/><path class="cls-20" d="M341.07,115.45l-128,326.91"/><path class="cls-21" d="M341.07,116.38l-127.66,326"/><path class="cls-22" d="M341.07,117.31Q277.42,279.82,213.78,442.36"/><path class="cls-23" d="M341.07,118.24q-63.45,162-126.93,324.12"/><path class="cls-24" d="M341.07,119.17,214.51,442.36"/><path class="cls-25" d="M341.07,120.1,214.87,442.36"/><path class="cls-26" d="M341.07,121Q278.16,281.68,215.24,442.36"/><path class="cls-27" d="M341.07,122Q278.34,282.13,215.6,442.36"/><path class="cls-28" d="M341.07,122.89,216,442.36"/><path class="cls-29" d="M341.07,123.82,216.33,442.36"/><path class="cls-30" d="M341.07,124.75,216.69,442.36"/><path class="cls-31" d="M341.07,125.69l-124,316.67"/><path class="cls-32" d="M341.07,126.62,217.42,442.36"/><path class="cls-33" d="M341.07,127.55q-61.62,157.37-123.28,314.8"/><path class="cls-34" d="M341.07,128.48q-61.44,156.9-122.92,313.87"/><path class="cls-35" d="M341.07,129.41,218.52,442.35"/><path class="cls-36" d="M341.07,130.34l-122.19,312"/><path class="cls-37" d="M341.07,131.27q-60.9,155.5-121.82,311.08"/><path class="cls-38" d="M341.07,132.2q-60.72,155-121.46,310.15"/><path class="cls-39" d="M341.07,133.13Q280.55,287.71,220,442.35"/><path class="cls-40" d="M341.07,134.06Q280.72,288.17,220.34,442.35"/><path class="cls-41" d="M341.07,135Q280.9,288.64,220.7,442.35"/><path class="cls-42" d="M341.07,135.92l-120,306.43"/><path class="cls-43" d="M341.07,136.86,221.43,442.35"/><path class="cls-44" d="M341.07,137.79Q281.46,290,221.8,442.35"/><path class="cls-45" d="M341.07,138.72Q281.64,290.49,222.16,442.35"/><path class="cls-46" d="M341.07,139.65,222.53,442.34"/><path class="cls-47" d="M341.07,140.58,222.89,442.34"/><path class="cls-48" d="M341.07,141.51Q282.18,291.87,223.26,442.34"/><path class="cls-49" d="M341.07,142.44q-58.69,149.9-117.45,299.9"/><path class="cls-50" d="M341.07,143.37,224,442.34"/><path class="cls-51" d="M341.07,144.3l-116.72,298"/><path class="cls-52" d="M341.07,145.23q-58.15,148.5-116.35,297.11"/><path class="cls-53" d="M341.07,146.16q-58,148-116,296.18"/><path class="cls-54" d="M341.07,147.09Q283.29,294.66,225.44,442.34"/><path class="cls-55" d="M341.07,148q-57.6,147.09-115.26,294.31"/><path class="cls-56" d="M341.07,149q-57.42,146.63-114.9,293.38"/><path class="cls-57" d="M341.07,149.89,226.54,442.34"/><path class="cls-58" d="M341.07,150.82,226.9,442.33"/><path class="cls-59" d="M341.07,151.75Q284.19,297,227.27,442.33"/><path class="cls-60" d="M341.07,152.68Q284.39,297.45,227.63,442.33"/><path class="cls-61" d="M341.07,153.61Q284.56,297.91,228,442.33"/><path class="cls-62" d="M341.07,154.54Q284.75,298.38,228.36,442.33"/><path class="cls-63" d="M341.07,155.47Q284.92,298.84,228.73,442.33"/><path class="cls-64" d="M341.07,156.4q-56,142.9-112,285.93"/><path class="cls-65" d="M341.07,157.33q-55.77,142.44-111.62,285"/><path class="cls-66" d="M341.07,158.26q-55.59,142-111.25,284.07"/><path class="cls-67" d="M341.07,159.2Q285.66,300.7,230.18,442.33"/><path class="cls-68" d="M341.07,160.13,230.55,442.33"/><path class="cls-69" d="M341.07,161.06,230.91,442.33"/><path class="cls-70" d="M341.07,162Q286.22,302.08,231.28,442.33"/><path class="cls-71" d="M341.07,162.92Q286.4,302.54,231.64,442.32"/><path class="cls-72" d="M341.07,163.85,232,442.32"/><path class="cls-73" d="M341.07,164.78,232.37,442.32"/><path class="cls-74" d="M341.07,165.71Q286.94,303.94,232.74,442.32"/><path class="cls-75" d="M341.07,166.64q-53.94,137.76-108,275.68"/><path class="cls-76" d="M341.07,167.57q-53.76,137.3-107.6,274.75"/><path class="cls-77" d="M341.07,168.5Q287.49,305.33,233.83,442.32"/><path class="cls-78" d="M341.07,169.43q-53.4,136.36-106.88,272.89"/><path class="cls-79" d="M341.07,170.37q-53.22,135.89-106.51,272"/><path class="cls-80" d="M341.07,171.3q-53,135.42-106.15,271"/><path class="cls-81" d="M341.07,172.23q-52.85,135-105.78,270.09"/><path class="cls-82" d="M341.07,173.16Q288.4,307.65,235.65,442.32"/><path class="cls-83" d="M341.07,174.09,236,442.32"/><path class="cls-84" d="M341.07,175Q288.77,308.58,236.38,442.31"/><path class="cls-85" d="M341.07,176Q288.95,309,236.75,442.31"/><path class="cls-86" d="M341.07,176.88q-51.93,132.63-104,265.43"/><path class="cls-87" d="M341.07,177.81Q289.32,310,237.48,442.31"/><path class="cls-88" d="M341.07,178.74Q289.5,310.44,237.84,442.31"/><path class="cls-89" d="M341.07,179.67Q289.68,310.89,238.21,442.31"/><path class="cls-90" d="M341.07,180.61q-51.21,130.74-102.5,261.7"/><path class="cls-91" d="M341.07,181.54q-51,130.27-102.14,260.77"/><path class="cls-92" d="M341.07,182.47Q290.24,312.28,239.3,442.31"/><path class="cls-93" d="M341.07,183.4Q290.42,312.75,239.66,442.31"/><path class="cls-94" d="M341.07,184.33q-50.47,128.88-101,258"/><path class="cls-95" d="M341.07,185.26Q290.78,313.68,240.39,442.31"/><path class="cls-96" d="M341.07,186.19q-50.1,128-100.31,256.12"/><path class="cls-97" d="M341.07,187.12Q291.15,314.61,241.12,442.3"/><path class="cls-98" d="M341.07,188.05q-49.74,127-99.58,254.25"/><path class="cls-99" d="M341.07,189Q291.51,315.54,241.85,442.3"/><path class="cls-100" d="M341.07,189.91Q291.69,316,242.22,442.3"/><path class="cls-101" d="M341.07,190.84Q291.89,316.46,242.58,442.3"/><path class="cls-102" d="M341.07,191.78q-49,125.14-98.13,250.52"/><path class="cls-103" d="M341.07,192.71Q292.25,317.39,243.31,442.3"/><path class="cls-104" d="M341.07,193.64q-48.65,124.22-97.4,248.66"/><path class="cls-105" d="M341.07,194.57Q292.61,318.32,244,442.3"/><path class="cls-106" d="M341.07,195.5,244.4,442.3"/><path class="cls-107" d="M341.07,196.43Q293,319.25,244.77,442.3"/><path class="cls-108" d="M341.07,197.36Q293.16,319.72,245.13,442.3"/><path class="cls-109" d="M341.07,198.29q-47.73,121.89-95.57,244"/><path class="cls-110" d="M341.07,199.22q-47.55,121.41-95.21,243.07"/><path class="cls-111" d="M341.07,200.15Q293.7,321.09,246.23,442.29"/><path class="cls-112" d="M341.07,201.08Q293.9,321.56,246.59,442.29"/><path class="cls-113" d="M341.07,202q-47,120-94.11,240.28"/><path class="cls-114" d="M341.07,203q-46.81,119.54-93.75,239.34"/><path class="cls-115" d="M341.07,203.88Q294.44,323,247.68,442.29"/><path class="cls-116" d="M341.07,204.81q-46.45,118.6-93,237.48"/><path class="cls-117" d="M341.07,205.74q-46.26,118.14-92.66,236.55"/><path class="cls-118" d="M341.07,206.67Q295,324.35,248.78,442.29"/><path class="cls-119" d="M341.07,207.6q-45.9,117.21-91.93,234.69"/><path class="cls-120" d="M341.07,208.53q-45.72,116.75-91.56,233.76"/><path class="cls-121" d="M341.07,209.46c-30.36,77.52-60.84,155.31-91.2,232.83"/><path class="cls-122" d="M341.07,210.39c-30.23,77.21-60.6,154.69-90.83,231.9"/><path class="cls-123" d="M341.07,211.32c-30.11,76.9-60.36,154.07-90.47,231"/><path class="cls-124" d="M341.07,212.25c-30,76.59-60.11,153.45-90.1,230"/><path class="cls-125" d="M341.07,213.18C311.2,289.46,281.2,366,251.33,442.28"/><path class="cls-126" d="M341.07,214.12c-29.75,76-59.63,152.2-89.38,228.16"/><path class="cls-127" d="M341.07,215.05c-29.63,75.65-59.39,151.58-89,227.23"/><path class="cls-128" d="M341.07,216c-29.5,75.34-59.14,151-88.65,226.3"/><path class="cls-129" d="M341.07,216.91c-29.38,75-58.9,150.34-88.28,225.37"/><path class="cls-130" d="M341.07,217.84c-29.26,74.72-58.66,149.72-87.92,224.44"/><path class="cls-131" d="M341.07,218.77c-29.14,74.4-58.42,149.1-87.55,223.51"/><path class="cls-132" d="M341.07,219.7c-29,74.09-58.17,148.48-87.19,222.58"/><path class="cls-133" d="M341.07,220.63c-28.89,73.78-57.93,147.86-86.82,221.65"/><path class="cls-134" d="M341.07,221.56C312.3,295,283.38,368.8,254.61,442.28"/><path class="cls-135" d="M341.07,222.49C312.42,295.65,283.62,369.11,255,442.27"/><path class="cls-136" d="M341.07,223.42c-28.53,72.85-57.2,146-85.73,218.85"/><path class="cls-137" d="M341.07,224.35c-28.41,72.54-57,145.39-85.36,217.92"/><path class="cls-138" d="M341.07,225.29c-28.28,72.22-56.72,144.76-85,217"/><path class="cls-139" d="M341.07,226.22c-28.16,71.91-56.47,144.14-84.64,216.05"/><path class="cls-140" d="M341.07,227.15c-28,71.6-56.23,143.52-84.27,215.12"/><path class="cls-141" d="M341.07,228.08c-27.92,71.29-56,142.9-83.91,214.19"/><path class="cls-142" d="M341.07,229c-27.8,71-55.75,142.28-83.54,213.26"/><path class="cls-143" d="M341.07,229.94c-27.67,70.67-55.5,141.66-83.18,212.33"/><path class="cls-144" d="M341.07,230.87c-27.55,70.36-55.26,141-82.81,211.4"/><path class="cls-145" d="M341.07,231.8c-27.43,70.05-55,140.42-82.45,210.47"/><path class="cls-146" d="M341.07,232.73c-27.31,69.74-54.78,139.8-82.08,209.54"/><path class="cls-147" d="M341.07,233.66c-27.19,69.43-54.53,139.18-81.72,208.61"/><path class="cls-148" d="M341.07,234.59C314,303.71,286.78,373.15,259.72,442.26"/><path class="cls-149" d="M341.07,235.52c-26.94,68.81-54.05,137.94-81,206.74"/><path class="cls-150" d="M341.07,236.46c-26.82,68.49-53.81,137.31-80.63,205.8"/><path class="cls-151" d="M341.07,237.39c-26.7,68.18-53.56,136.69-80.26,204.87"/><path class="cls-152" d="M341.07,238.32c-26.58,67.86-53.32,136.07-79.9,203.94"/><path class="cls-153" d="M341.07,239.25c-26.46,67.55-53.08,135.45-79.53,203"/><path class="cls-154" d="M341.07,240.18C314.74,307.42,288.24,375,261.9,442.26"/><path class="cls-155" d="M341.07,241.11c-26.21,66.93-52.59,134.22-78.8,201.15"/><path class="cls-156" d="M341.07,242c-26.09,66.62-52.35,133.6-78.44,200.22"/><path class="cls-157" d="M341.07,243C315.1,309.28,289,376,263,442.26"/><path class="cls-158" d="M341.07,243.9c-25.85,66-51.86,132.36-77.71,198.36"/><path class="cls-159" d="M341.07,244.83c-25.72,65.69-51.62,131.74-77.34,197.43"/><path class="cls-160" d="M341.07,245.76c-25.6,65.38-51.38,131.12-77,196.5"/><path class="cls-161" d="M341.07,246.69c-25.48,65.07-51.14,130.5-76.61,195.56"/><path class="cls-162" d="M341.07,247.63c-25.36,64.75-50.89,129.87-76.25,194.62"/><path class="cls-163" d="M341.07,248.56C315.83,313,290.42,377.81,265.18,442.25"/><path class="cls-164" d="M341.07,249.49C316,313.62,290.66,378.12,265.55,442.25"/><path class="cls-165" d="M341.07,250.42c-25,63.82-50.17,128-75.16,191.83"/><path class="cls-166" d="M341.07,251.35c-24.87,63.51-49.92,127.39-74.79,190.9"/><path class="cls-167" d="M341.07,252.28c-24.75,63.2-49.68,126.77-74.43,190"/><path class="cls-168" d="M341.07,253.21c-24.63,62.89-49.44,126.15-74.06,189"/><path class="cls-169" d="M341.07,254.14c-24.51,62.58-49.19,125.53-73.7,188.11"/><path class="cls-170" d="M341.07,255.07C316.69,317.34,292.12,380,267.74,442.25"/><path class="cls-171" d="M341.07,256c-24.26,62-48.71,124.29-73,186.25"/><path class="cls-172" d="M341.07,256.93c-24.14,61.65-48.47,123.67-72.6,185.32"/><path class="cls-173" d="M341.07,257.86c-24,61.33-48.22,123.06-72.24,184.39"/><path class="cls-174" d="M341.07,258.8c-23.9,61-48,122.43-71.88,183.44"/><path class="cls-175" d="M341.07,259.73c-23.77,60.7-47.74,121.81-71.51,182.51"/><path class="cls-176" d="M341.07,260.66c-23.65,60.39-47.5,121.19-71.15,181.58"/><path class="cls-177" d="M341.07,261.59c-23.53,60.08-47.25,120.57-70.78,180.65"/><path class="cls-178" d="M341.07,262.52c-23.41,59.77-47,120-70.42,179.72"/><path class="cls-179" d="M341.07,263.45C317.78,322.91,294.3,382.78,271,442.24"/><path class="cls-180" d="M341.07,264.38c-23.16,59.15-46.52,118.71-69.69,177.86"/><path class="cls-181" d="M341.07,265.31c-23,58.84-46.28,118.09-69.32,176.93"/><path class="cls-182" d="M341.07,266.24c-22.92,58.53-46,117.47-69,176"/><path class="cls-183" d="M341.07,267.17c-22.8,58.22-45.8,116.85-68.59,175.07"/><path class="cls-184" d="M341.07,268.1C318.39,326,295.52,384.33,272.84,442.24"/><path class="cls-185" d="M341.07,269c-22.55,57.6-45.31,115.61-67.86,173.21"/><path class="cls-186" d="M341.07,270c-22.43,57.28-45.07,115-67.5,172.27"/><path class="cls-187" d="M341.07,270.9c-22.31,57-44.83,114.36-67.14,171.33"/><path class="cls-188" d="M341.07,271.83c-22.19,56.66-44.58,113.74-66.77,170.4"/><path class="cls-189" d="M341.07,272.76C319,329.11,296.73,385.88,274.66,442.23"/><path class="cls-190" d="M341.07,273.69c-21.95,56-44.1,112.5-66,168.54"/><path class="cls-191" d="M341.07,274.62c-21.82,55.73-43.86,111.89-65.68,167.61"/><path class="cls-192" d="M341.07,275.55c-21.7,55.42-43.61,111.27-65.31,166.68"/><path class="cls-193" d="M341.07,276.48c-21.58,55.11-43.37,110.65-64.95,165.75"/><path class="cls-194" d="M341.07,277.41c-21.46,54.79-43.13,110-64.58,164.82"/><path class="cls-195" d="M341.07,278.34c-21.34,54.48-42.88,109.41-64.22,163.89"/><path class="cls-196" d="M341.07,279.27c-21.21,54.17-42.64,108.79-63.85,163"/><path class="cls-197" d="M341.07,280.2c-21.09,53.86-42.4,108.17-63.49,162"/><path class="cls-198" d="M341.07,281.14c-21,53.54-42.16,107.54-63.12,161.09"/><path class="cls-199" d="M341.07,282.07C320.22,335.3,299.16,389,278.31,442.23"/><path class="cls-200" d="M341.07,283c-20.73,52.92-41.67,106.3-62.4,159.22"/><path class="cls-201" d="M341.07,283.93c-20.6,52.61-41.43,105.68-62,158.29"/><path class="cls-202" d="M341.07,284.86c-20.48,52.3-41.19,105.06-61.67,157.36"/><path class="cls-203" d="M341.07,285.79c-20.36,52-40.94,104.44-61.3,156.43"/><path class="cls-204" d="M341.07,286.72c-20.24,51.68-40.7,103.82-60.94,155.5"/><path class="cls-205" d="M341.07,287.65C321,339,300.61,390.85,280.5,442.22"/><path class="cls-206" d="M341.07,288.58c-20,51.06-40.22,102.58-60.21,153.64"/><path class="cls-207" d="M341.07,289.51c-19.87,50.75-40,102-59.84,152.71"/><path class="cls-208" d="M341.07,290.44c-19.75,50.44-39.73,101.34-59.48,151.78"/><path class="cls-209" d="M341.07,291.38C321.44,341.5,301.58,392.09,282,442.22"/><path class="cls-210" d="M341.07,292.31c-19.51,49.81-39.24,100.1-58.75,149.91"/><path class="cls-211" d="M341.07,293.24c-19.38,49.5-39,99.48-58.39,149"/><path class="cls-212" d="M341.07,294.17c-19.26,49.19-38.76,98.86-58,148"/><path class="cls-213" d="M341.07,295.1c-19.14,48.88-38.52,98.24-57.66,147.11"/><path class="cls-214" d="M341.07,296c-19,48.57-38.27,97.62-57.29,146.18"/><path class="cls-215" d="M341.07,297c-18.9,48.25-38,97-56.93,145.25"/><path class="cls-216" d="M341.07,297.89c-18.78,47.94-37.79,96.38-56.56,144.32"/><path class="cls-217" d="M341.07,298.82c-18.65,47.63-37.55,95.76-56.2,143.39"/><path class="cls-218" d="M341.07,299.75c-18.53,47.32-37.3,95.14-55.83,142.46"/><path class="cls-219" d="M341.07,300.68c-18.41,47-37.06,94.52-55.47,141.53"/><path class="cls-220" d="M341.07,301.61c-18.29,46.7-36.82,93.9-55.1,140.6"/><path class="cls-221" d="M341.07,302.55c-18.17,46.38-36.58,93.27-54.74,139.66"/><path class="cls-222" d="M341.07,303.48c-18,46.07-36.33,92.65-54.37,138.73"/><path class="cls-223" d="M341.07,304.41c-17.92,45.76-36.09,92-54,137.8"/><path class="cls-224" d="M341.07,305.34c-17.8,45.45-35.85,91.41-53.65,136.87"/><path class="cls-225" d="M341.07,306.27c-17.68,45.14-35.6,90.79-53.28,135.93"/><path class="cls-226" d="M341.07,307.2c-17.56,44.83-35.36,90.17-52.92,135"/><path class="cls-227" d="M341.07,308.13C323.64,352.65,306,397.68,288.52,442.2"/><path class="cls-228" d="M341.07,309.06C323.76,353.27,306.19,398,288.88,442.2"/><path class="cls-229" d="M341.07,310c-17.19,43.9-34.63,88.32-51.82,132.21"/><path class="cls-230" d="M341.07,310.92c-17.07,43.59-34.39,87.7-51.46,131.28"/><path class="cls-231" d="M341.07,311.85C324.12,355.13,306.92,398.93,290,442.2"/><path class="cls-232" d="M341.07,312.78c-16.82,43-33.91,86.46-50.73,129.42"/><path class="cls-233" d="M341.07,313.72c-16.7,42.65-33.66,85.83-50.36,128.48"/><path class="cls-234" d="M341.07,314.65c-16.58,42.34-33.42,85.21-50,127.55"/><path class="cls-235" d="M341.07,315.58c-16.46,42-33.18,84.59-49.64,126.62"/><path class="cls-236" d="M341.07,316.51c-16.34,41.71-32.93,84-49.27,125.69"/><path class="cls-237" d="M341.07,317.44c-16.22,41.4-32.69,83.35-48.91,124.76"/><path class="cls-238" d="M341.07,318.37C325,359.46,308.62,401.1,292.53,442.19"/><path class="cls-239" d="M341.07,319.3c-16,40.78-32.21,82.11-48.18,122.89"/><path class="cls-240" d="M341.07,320.23c-15.85,40.47-32,81.49-47.81,122"/><path class="cls-241" d="M341.07,321.16c-15.73,40.16-31.72,80.87-47.45,121"/><path class="cls-242" d="M341.07,322.09c-15.61,39.85-31.48,80.25-47.08,120.1"/><path class="cls-243" d="M341.07,323c-15.48,39.54-31.24,79.63-46.72,119.17"/><path class="cls-244" d="M341.07,324c-15.36,39.23-31,79-46.35,118.24"/><path class="cls-245" d="M341.07,324.89c-15.24,38.91-30.75,78.38-46,117.3"/><path class="cls-246" d="M341.07,325.82c-15.12,38.6-30.51,77.76-45.62,116.37"/><path class="cls-247" d="M341.07,326.75c-15,38.29-30.27,77.15-45.26,115.44"/><path class="cls-248" d="M341.07,327.68c-14.87,38-30,76.53-44.9,114.51"/><path class="cls-249" d="M341.07,328.61c-14.75,37.67-29.78,75.91-44.53,113.58"/><path class="cls-250" d="M341.07,329.54c-14.63,37.36-29.54,75.29-44.17,112.65"/><path class="cls-251" d="M341.07,330.47c-14.51,37-29.29,74.67-43.8,111.71"/><path class="cls-252" d="M341.07,331.4c-14.39,36.74-29.05,74.05-43.44,110.78"/><path class="cls-253" d="M341.07,332.33c-14.26,36.43-28.81,73.43-43.07,109.85"/><path class="cls-254" d="M341.07,333.26c-14.14,36.12-28.57,72.81-42.71,108.92"/><path class="cls-255" d="M341.07,334.19c-14,35.81-28.32,72.19-42.34,108"/><path class="cls-256" d="M341.07,335.12c-13.9,35.49-28.08,71.57-42,107.06"/><path class="cls-257" d="M341.07,336.06c-13.78,35.17-27.84,70.94-41.61,106.12"/><path class="cls-258" d="M341.07,337c-13.66,34.86-27.6,70.32-41.25,105.19"/><path class="cls-259" d="M341.07,337.92c-13.53,34.55-27.35,69.7-40.89,104.26"/><path class="cls-260" d="M341.07,338.85c-13.41,34.24-27.11,69.08-40.52,103.33"/><path class="cls-261" d="M341.07,339.78c-13.29,33.93-26.87,68.46-40.16,102.4"/><path class="cls-262" d="M341.07,340.71c-13.17,33.62-26.63,67.84-39.79,101.47"/><path class="cls-263" d="M341.07,341.64C328,375,314.69,408.86,301.64,442.18"/><path class="cls-264" d="M341.07,342.57c-12.92,33-26.14,66.6-39.06,99.6"/><path class="cls-265" d="M341.07,343.5c-12.8,32.69-25.9,66-38.7,98.67"/><path class="cls-266" d="M341.07,344.43c-12.68,32.38-25.65,65.37-38.33,97.74"/><path class="cls-267" d="M341.07,345.36c-12.56,32.07-25.41,64.75-38,96.81"/><path class="cls-268" d="M341.07,346.29c-12.44,31.76-25.17,64.13-37.6,95.88"/><path class="cls-269" d="M341.07,347.23c-12.31,31.44-24.93,63.5-37.24,94.94"/><path class="cls-270" d="M341.07,348.16c-12.19,31.13-24.68,62.88-36.87,94"/><path class="cls-271" d="M341.07,349.09c-12.07,30.82-24.44,62.26-36.51,93.08"/><path class="cls-272" d="M341.07,350c-11.95,30.51-24.2,61.64-36.15,92.15"/><path class="cls-273" d="M341.07,351c-11.83,30.2-24,61-35.78,91.22"/><path class="cls-274" d="M341.07,351.88c-11.7,29.89-23.71,60.4-35.42,90.29"/><path class="cls-275" d="M341.07,352.81c-11.58,29.58-23.47,59.78-35.05,89.36"/><path class="cls-276" d="M341.07,353.74c-11.46,29.27-23.23,59.16-34.69,88.42"/><path class="cls-277" d="M341.07,354.67c-11.34,28.95-23,58.54-34.32,87.49"/><path class="cls-278" d="M341.07,355.6c-11.22,28.64-22.74,57.92-34,86.56"/><path class="cls-279" d="M341.07,356.53c-11.1,28.33-22.5,57.3-33.59,85.63"/><path class="cls-280" d="M341.07,357.46c-11,28-22.26,56.68-33.23,84.7"/><path class="cls-281" d="M341.07,358.4c-10.85,27.7-22,56.05-32.86,83.76"/><path class="cls-282" d="M341.07,359.33c-10.73,27.39-21.77,55.43-32.5,82.83"/><path class="cls-283" d="M341.07,360.26c-10.61,27.08-21.53,54.81-32.14,81.9"/><path class="cls-284" d="M341.07,361.19c-10.49,26.77-21.29,54.2-31.77,81"/><path class="cls-285" d="M341.07,362.12c-10.36,26.46-21,53.58-31.41,80"/><path class="cls-286" d="M341.07,363.05c-10.24,26.15-20.8,53-31,79.11"/><path class="cls-287" d="M341.07,364c-10.12,25.84-20.56,52.34-30.68,78.18"/><path class="cls-288" d="M341.07,364.91c-10,25.53-20.32,51.72-30.31,77.25"/><path class="cls-289" d="M341.07,365.84c-9.88,25.22-20.07,51.1-29.95,76.31"/><path class="cls-290" d="M341.07,366.77c-9.75,24.91-19.83,50.48-29.58,75.38"/><path class="cls-291" d="M341.07,367.7c-9.63,24.6-19.59,49.86-29.22,74.45"/><path class="cls-292" d="M341.07,368.63c-9.51,24.29-19.34,49.24-28.85,73.52"/><path class="cls-293" d="M341.07,369.57c-9.39,24-19.1,48.61-28.49,72.58"/><path class="cls-294" d="M341.07,370.5c-9.27,23.66-18.86,48-28.12,71.65"/><path class="cls-295" d="M341.07,371.43c-9.14,23.35-18.62,47.37-27.76,70.72"/><path class="cls-296" d="M341.07,372.36c-9,23-18.37,46.75-27.4,69.79"/><path class="cls-297" d="M341.07,373.29c-8.9,22.73-18.13,46.13-27,68.86"/><path class="cls-298" d="M341.07,374.22c-8.78,22.41-17.89,45.51-26.67,67.93"/><path class="cls-299" d="M341.07,375.15c-8.66,22.1-17.65,44.89-26.3,67"/><path class="cls-300" d="M341.07,376.08c-8.54,21.79-17.4,44.27-25.94,66.07"/><path class="cls-301" d="M341.07,377c-8.41,21.48-17.16,43.65-25.57,65.14"/><path class="cls-302" d="M341.07,377.94c-8.29,21.17-16.92,43-25.21,64.2"/><path class="cls-303" d="M341.07,378.87c-8.17,20.86-16.68,42.42-24.84,63.27"/><path class="cls-304" d="M341.07,379.8c-8.05,20.55-16.43,41.8-24.48,62.34"/><path class="cls-305" d="M341.07,380.74c-7.93,20.23-16.19,41.17-24.11,61.4"/><path class="cls-306" d="M341.07,381.67c-7.8,19.92-15.95,40.55-23.75,60.47"/><path class="cls-307" d="M341.07,382.6c-7.68,19.61-15.7,39.93-23.38,59.54"/><path class="cls-308" d="M341.07,383.53c-7.56,19.3-15.46,39.31-23,58.61"/><path class="cls-309" d="M341.07,384.46c-7.44,19-15.22,38.69-22.66,57.68"/><path class="cls-310" d="M341.07,385.39c-7.32,18.68-15,38.07-22.29,56.75"/><path class="cls-311" d="M341.07,386.32c-7.19,18.37-14.73,37.45-21.93,55.82"/><path class="cls-312" d="M341.07,387.25c-7.07,18.06-14.49,36.83-21.56,54.89"/><path class="cls-313" d="M341.07,388.18c-6.95,17.75-14.25,36.21-21.2,54"/><path class="cls-314" d="M341.07,389.11c-6.83,17.44-14,35.59-20.83,53"/><path class="cls-315" d="M341.07,390c-6.71,17.13-13.76,35-20.47,52.09"/><path class="cls-316" d="M341.07,391c-6.58,16.82-13.52,34.35-20.1,51.16"/><path class="cls-317" d="M341.07,391.91c-6.46,16.5-13.28,33.72-19.74,50.22"/><path class="cls-318" d="M341.07,392.84c-6.34,16.19-13,33.1-19.37,49.29"/><path class="cls-319" d="M341.07,393.77c-6.22,15.87-12.79,32.48-19,48.36"/><path class="cls-320" d="M341.07,394.7c-6.1,15.56-12.55,31.86-18.65,47.43"/><path class="cls-321" d="M341.07,395.63c-6,15.25-12.31,31.25-18.28,46.5"/><path class="cls-322" d="M341.07,396.56c-5.85,14.94-12.06,30.63-17.92,45.57"/><path class="cls-323" d="M341.07,397.49c-5.73,14.63-11.82,30-17.55,44.64"/><path class="cls-324" d="M341.07,398.42c-5.61,14.32-11.58,29.39-17.19,43.71"/><path class="cls-325" d="M341.07,399.35c-5.49,14-11.34,28.77-16.82,42.78"/><path class="cls-326" d="M341.07,400.28C335.7,414,330,428.43,324.61,442.13"/><path class="cls-327" d="M341.07,401.21c-5.24,13.39-10.85,27.53-16.09,40.92"/><path class="cls-328" d="M341.07,402.15c-5.12,13.07-10.61,26.9-15.73,40"/><path class="cls-329" d="M341.07,403.08c-5,12.76-10.37,26.28-15.36,39"/><path class="cls-330" d="M341.07,404c-4.88,12.45-10.12,25.66-15,38.11"/><path class="cls-331" d="M341.07,404.94c-4.76,12.14-9.88,25-14.63,37.18"/><path class="cls-332" d="M341.07,405.87c-4.63,11.83-9.64,24.42-14.27,36.25"/><path class="cls-333" d="M341.07,406.8c-4.51,11.52-9.4,23.8-13.91,35.32"/><path class="cls-334" d="M341.07,407.73c-4.39,11.21-9.15,23.18-13.54,34.39"/><path class="cls-335" d="M341.07,408.66c-4.27,10.9-8.91,22.56-13.18,33.46"/><path class="cls-336" d="M341.07,409.59c-4.15,10.59-8.67,21.94-12.81,32.53"/><path class="cls-337" d="M341.07,410.52c-4,10.28-8.42,21.32-12.45,31.6"/><path class="cls-338" d="M341.07,411.45c-3.9,10-8.18,20.7-12.08,30.67"/><path class="cls-339" d="M341.07,412.38c-3.78,9.66-7.94,20.08-11.72,29.74"/><path class="cls-340" d="M341.07,413.32c-3.66,9.33-7.7,19.46-11.35,28.8"/><path class="cls-341" d="M341.07,414.25c-3.54,9-7.45,18.84-11,27.86"/><path class="cls-342" d="M341.07,415.18c-3.41,8.71-7.21,18.22-10.62,26.93"/><path class="cls-343" d="M341.07,416.11c-3.29,8.4-7,17.6-10.26,26"/><path class="cls-344" d="M341.07,417c-3.17,8.09-6.73,17-9.9,25.07"/><path class="cls-345" d="M341.07,418c-3.05,7.78-6.48,16.36-9.53,24.14"/><path class="cls-346" d="M341.07,418.9c-2.93,7.47-6.24,15.74-9.17,23.21"/><path class="cls-347" d="M341.07,419.83c-2.81,7.16-6,15.12-8.8,22.28"/><path class="cls-348" d="M341.07,420.76c-2.68,6.85-5.75,14.5-8.44,21.35"/><path class="cls-349" d="M341.07,421.69c-2.56,6.54-5.51,13.88-8.07,20.42"/><path class="cls-350" d="M341.07,422.62c-2.44,6.23-5.27,13.26-7.71,19.49"/><path class="cls-351" d="M341.07,423.55c-2.32,5.92-5,12.64-7.34,18.56"/><path class="cls-352" d="M341.07,424.49c-2.2,5.6-4.78,12-7,17.62"/><path class="cls-353" d="M341.07,425.42c-2.07,5.29-4.54,11.39-6.61,16.68"/><path class="cls-354" d="M341.07,426.35c-1.95,5-4.3,10.77-6.25,15.75"/><path class="cls-355" d="M341.07,427.28c-1.83,4.67-4.06,10.15-5.88,14.82"/><path class="cls-356" d="M341.07,428.21c-1.71,4.36-3.81,9.53-5.52,13.89"/><path class="cls-357" d="M341.07,429.14c-1.59,4.05-3.57,8.91-5.16,13"/><path class="cls-358" d="M341.07,430.07c-1.46,3.74-3.33,8.3-4.79,12"/><path class="cls-359" d="M341.07,431c-1.34,3.43-3.09,7.68-4.43,11.1"/><path class="cls-360" d="M341.07,431.93c-1.22,3.12-2.84,7.06-4.06,10.17"/><path class="cls-361" d="M341.07,432.86c-1.1,2.8-2.6,6.44-3.7,9.24"/><path class="cls-362" d="M341.07,433.79c-1,2.49-2.36,5.82-3.33,8.31"/><path class="cls-363" d="M341.07,434.72c-.85,2.18-2.11,5.2-3,7.38"/><path class="cls-364" d="M341.07,435.66c-.73,1.86-1.87,4.57-2.6,6.44"/><path class="cls-365" d="M341.07,436.59c-.61,1.55-1.63,4-2.24,5.51"/><path class="cls-366" d="M341.07,437.52c-.49,1.24-1.39,3.33-1.87,4.57"/><path class="cls-367" d="M341.07,438.45c-.37.93-1.14,2.71-1.51,3.64"/><path class="cls-368" d="M341.07,439.38c-.25.62-.9,2.09-1.15,2.71"/><path class="cls-369" d="M341.07,440.31c-.12.31-.66,1.47-.78,1.78"/><line class="cls-370" x1="341.07" y1="441.24" x2="340.65" y2="442.09"/></g><rect class="cls-1" x="357" y="166" width="2" height="27"/><rect class="cls-1" x="121" y="129" width="3" height="17"/><rect class="cls-1" x="121" y="167" width="3" height="29"/><rect class="cls-1" x="121" y="205" width="3" height="29"/></svg>