<svg id="Layer_1" data-name="Layer 1" xmlns="http://www.w3.org/2000/svg" width="500" height="100" viewBox="0 0 500 100"><defs><style>.cls-1{fill:#fff;}.cls-2{fill:#e59038;}.cls-3{fill:#4c4e55;}.cls-4{fill:#23262f;}.cls-5{fill:none;}.cls-6{fill:#30333c;}.cls-7{fill:#99b2c1;}.cls-8{fill:#2d2915;}.cls-9{fill:#6d4b2d;}.cls-10{fill:#c17e42;}.cls-11{fill:#003f63;}</style></defs><title>toggle</title><rect class="cls-1" x="0.17" y="26.44" width="99.28" height="46.41" rx="23.21"/><rect class="cls-2" x="1.84" y="27.4" width="95.93" height="44.5" rx="22.25"/><circle class="cls-3" cx="75.81" cy="49.65" r="22.25"/><circle class="cls-4" cx="75.81" cy="49.65" r="20.1"/><rect class="cls-5" x="-0.19" y="-0.35" width="100" height="100"/><rect class="cls-1" x="100.17" y="26.44" width="99.28" height="46.41" rx="23.21"/><rect class="cls-2" x="101.84" y="27.4" width="95.93" height="44.5" rx="22.25"/><rect class="cls-6" x="146.81" y="27.4" width="50.97" height="44.5" rx="22.25"/><circle class="cls-3" cx="166.81" cy="49.65" r="22.25"/><circle class="cls-7" cx="166.81" cy="49.65" r="20.1"/><circle class="cls-8" cx="166.81" cy="49.65" r="20.1"/><rect class="cls-5" x="99.81" y="-0.35" width="100" height="100"/><rect class="cls-1" x="200.17" y="26.44" width="99.28" height="46.41" rx="23.21"/><rect class="cls-2" x="201.84" y="27.4" width="95.93" height="44.5" rx="22.25"/><rect class="cls-6" x="232.81" y="27.4" width="64.97" height="44.5" rx="22.25"/><circle class="cls-3" cx="250.81" cy="49.65" r="22.25"/><circle class="cls-7" cx="250.81" cy="49.65" r="20.1"/><circle class="cls-9" cx="250.81" cy="49.65" r="20.1"/><rect class="cls-5" x="199.81" y="-0.35" width="100" height="100"/><rect class="cls-1" x="300.17" y="26.44" width="99.28" height="46.41" rx="23.21"/><rect class="cls-2" x="301.84" y="27.4" width="95.93" height="44.5" rx="22.25"/><rect class="cls-6" x="319.81" y="27.4" width="77.97" height="44.5" rx="22.25"/><circle class="cls-3" cx="337.81" cy="49.65" r="22.25"/><circle class="cls-7" cx="337.81" cy="49.65" r="20.1"/><circle class="cls-10" cx="337.81" cy="49.65" r="20.1"/><rect class="cls-5" x="299.81" y="-0.35" width="100" height="100"/><rect class="cls-1" x="400.17" y="26.44" width="99.28" height="46.41" rx="23.21"/><rect class="cls-11" x="401.84" y="27.4" width="95.93" height="44.5" rx="22.25"/><rect class="cls-6" x="407.81" y="27.4" width="89.97" height="44.5" rx="22.25"/><circle class="cls-3" cx="423.81" cy="49.65" r="22.25"/><circle class="cls-7" cx="423.81" cy="49.65" r="20.1"/><circle class="cls-2" cx="423.81" cy="49.65" r="20.1"/><rect class="cls-5" x="399.81" y="-0.35" width="100" height="100"/></svg>