<svg id="Lag_1" data-name="Lag 1" xmlns="http://www.w3.org/2000/svg" width="680" height="567" viewBox="0 0 680 567"><defs><style>.cls-1{fill:#eabda4;}.cls-2{fill:#d3a08c;opacity:0.61;}</style></defs><title>Tommeltot</title><path class="cls-1" d="M48.3,566.39H1.85l81.92-74.66,71.8-62.83,51.49-45.38a17.77,17.77,0,0,0,2.61-2.87l12.7-17.46c.34-.47.71-.92,1.09-1.35l27.74-31.21c.27-.3.53-.61.78-.94l11.18-14.47a17.72,17.72,0,0,0,3.7-10.84V261.76c0-.46,0-.92.05-1.38l3.54-45.08,4.09-59.37a36.36,36.36,0,0,1,2.55-11.12l8.16-20.38a17.83,17.83,0,0,1,3.92-5.94l21.67-21.67,18.31-17.44q.54-.51,1-1l45.27-50.91a17.78,17.78,0,0,1,2-1.9L400.71,6.34a17.77,17.77,0,0,1,7.88-3.71L417.3.93A17.86,17.86,0,0,1,427.64,2l7.93,3.38A18,18,0,0,1,439,7.33l19.94,14.36a18.74,18.74,0,0,1,1.7,1.39L483.7,44.5a17,17,0,0,0,2.71,2.07l30.67,19.07a16.58,16.58,0,0,1,2.06,1.49l9.76,8.23a17.7,17.7,0,0,1,6.31,13.56h0c0,7.44-4.76,13.21-12,18.79l-11.63,5.72c-12.82,1.38-14.39.29-19-.56l-40.06-13.1c-.52-.17-1-.36-1.52-.57,0,0-21.17-8.27-25.16-7a23.62,23.62,0,0,0-11.08,8.43l-20.91,36.45a17.7,17.7,0,0,0-2.12,11.68l5.8,35.5a18.23,18.23,0,0,1,.15,4.55l-6,62.39c-.05.56-.08,1.13-.08,1.69v31.79a17.65,17.65,0,0,0,1.17,6.31l3.52,9.26c1.6,4.2,5.76,5.68,8.78,9.62l14,6.84a17.76,17.76,0,0,0,7.54,1.81l57.45.84,150.77-.7c15.84-.08,51.61-.53,44.94,1.69l-54.79,51a17.37,17.37,0,0,1-2,1.69l-73.87,55a17.66,17.66,0,0,1-5,2.6l-22.11,7.37a17.31,17.31,0,0,1-4.34.86l-40.82,2.92a17.76,17.76,0,0,0-12,5.93l-23,26-55.64,67.31-17.15,19.34a17.72,17.72,0,0,1-13.26,6Z"/><path class="cls-2" d="M387.85,285.94l-23.24,52.2a3.07,3.07,0,0,0-.06,1.94c.36,1.21,170.78-10.91,212.62-15.27a21.5,21.5,0,0,1,13.4,3L606.51,336a18.48,18.48,0,0,1,5.67,4.5l14.1,16.67,37.63-35h-242l-21.51-12.35a7.06,7.06,0,0,1-2.93-3.21C394.83,300.92,388,285.53,387.85,285.94Z"/></svg>